<svg width="1920" height="838" viewBox="0 0 1920 838" fill="none" xmlns="http://www.w3.org/2000/svg">
<path fill-rule="evenodd" clip-rule="evenodd" d="M-191.579 73.7137V39L363.839 39V73.7136L-191.579 73.7137ZM119.108 108.427L51.416 108.427V663.846H120.843V177.855H605.099V247.282H674.526V177.855H605.099L674.526 177.855V108.427L120.843 108.427L119.108 108.427ZM294.412 281.995H224.985V837.414H294.412V281.995ZM363.839 212.568H433.267V767.986H363.839V483.335H294.412V413.907H363.839V212.568ZM190.271 212.568H155.558V767.986H190.271V212.568Z" fill="#121212"/>
<path fill-rule="evenodd" clip-rule="evenodd" d="M2111.58 764.286L2111.58 799L1556.16 799L1556.16 764.286L2111.58 764.286ZM1800.89 729.573L1868.58 729.573L1868.58 174.154L1799.16 174.154L1799.16 660.145L1245.47 660.145L1245.47 729.573L1800.89 729.573ZM1625.59 556.004L1695.02 556.004L1695.02 0.586206L1625.59 0.5862L1625.59 556.004ZM1556.16 625.432L1486.73 625.432L1486.73 70.0136L1556.16 70.0136L1556.16 354.665L1625.59 354.665L1625.59 424.093L1556.16 424.093L1556.16 625.432ZM1729.73 625.432L1764.44 625.432L1764.44 70.0135L1729.73 70.0135L1729.73 625.432ZM1245.47 590.718L1245.47 660.145L1314.9 660.145L1314.9 590.718L1245.47 590.718Z" fill="#121212"/>
</svg>
