<svg width="28" height="28" viewBox="0 0 28 28" fill="none" xmlns="http://www.w3.org/2000/svg">
<path fill-rule="evenodd" clip-rule="evenodd" d="M26 14C26 20.6274 20.6274 26 14 26C7.37258 26 2 20.6274 2 14C2 7.37258 7.37258 2 14 2C20.6274 2 26 7.37258 26 14ZM28 14C28 21.732 21.732 28 14 28C6.26801 28 0 21.732 0 14C0 6.26801 6.26801 0 14 0C21.732 0 28 6.26801 28 14ZM20.796 14.8661C21.4627 14.4812 21.4627 13.5189 20.796 13.134L11.3516 7.68128C10.6849 7.29638 9.85155 7.77751 9.85155 8.54731L9.85155 19.4528C9.85155 20.2226 10.6849 20.7037 11.3516 20.3188L20.796 14.8661Z" fill="white"/>
</svg>
