<svg width="175" height="60" viewBox="0 0 175 60" fill="none" xmlns="http://www.w3.org/2000/svg">
<path d="M173.999 5.45778C173.476 5.98105 172.788 6.30679 172.052 6.37949C171.315 6.45219 170.577 6.26735 169.961 5.85647C169.346 5.44558 168.893 4.83408 168.678 4.12617C168.463 3.41826 168.5 2.65774 168.783 1.97422C169.066 1.2907 169.577 0.726464 170.23 0.377674C170.882 0.0288836 171.635 -0.0828815 172.361 0.0614243C173.087 0.20573 173.74 0.597177 174.209 1.16906C174.678 1.74094 174.935 2.45787 174.935 3.19767C174.936 3.6175 174.853 4.03335 174.693 4.42124C174.532 4.80913 174.296 5.16141 173.999 5.45778ZM172.539 2.44991C172.539 2.80773 172.289 3.0157 171.927 3.0157H171.112V1.88106H171.916C172.289 1.88106 172.539 2.09361 172.539 2.44991ZM173.201 5.01126L172.366 3.40717C172.579 3.35481 172.767 3.23046 172.899 3.05518C173.031 2.8799 173.098 2.66446 173.089 2.44532C173.089 1.83366 172.65 1.38714 171.964 1.38714H170.558V5.01126H171.107V3.4821H171.795L172.56 5.01126H173.201ZM158.088 10.2532C161.114 10.2532 162.77 12.4935 162.77 16.6513V33.3421C162.77 37.4999 161.114 39.7401 158.088 39.7401C155.062 39.7401 153.404 37.4999 153.404 33.3421V16.6513C153.404 12.4935 155.062 10.2532 158.088 10.2532ZM158.088 2.41627C150.442 2.41627 145.766 7.77599 145.766 16.5717V33.4216C145.766 42.2189 150.45 47.5771 158.088 47.5771C165.726 47.5771 170.409 42.225 170.409 33.4216V16.5717C170.409 7.77446 165.725 2.41627 158.088 2.41627ZM132.005 25.4485L142.379 3.21602H134.381L123.789 26.5679H123.645V3.21602H116.008V59.1972H123.645V41.9299L126.959 34.726L134.452 59.1926H142.595L132.005 25.4485ZM99.8682 2.41627C92.5909 2.41627 88.4836 6.97471 88.4836 14.9722V16.1711C88.4836 22.7297 90.8614 27.3676 97.8497 33.9262C102.966 38.7186 104.48 41.5231 104.48 45.0417V46.8767C104.48 50.3948 103.039 52.1544 100.156 52.1554C97.2727 52.1564 95.8317 50.3968 95.8327 46.8767V42.8825L88.4836 43.6823V47.4349C88.4836 55.4324 92.7346 59.9908 100.299 59.9908C107.864 59.9908 112.117 55.4324 112.117 47.4349V44.6365C112.117 37.9189 109.517 33.2809 102.534 26.7223C97.4169 21.9238 96.1202 19.1254 96.1202 15.8454V15.1267C96.1202 11.9277 97.4964 10.2471 100.012 10.2471C102.527 10.2471 103.902 11.9292 103.902 15.1267V17.2048L111.253 16.4051V14.9661C111.253 6.97471 107.145 2.41627 99.8682 2.41627ZM83.1514 3.21602H75.5132V46.4027C75.5132 50.4809 73.8556 51.9994 71.1902 51.9994C68.5249 51.9994 66.8627 50.4809 66.8627 46.4027V3.21602H59.5227V46.6443C59.5227 55.4416 64.0628 60 71.2682 60C78.6174 60 83.1575 55.4416 83.1575 46.6443L83.1514 3.21602ZM36.9706 11.053H40.0687C43.7387 11.053 45.4009 13.2137 45.4009 17.9342V20.8136C45.4009 25.5326 43.7433 27.6949 40.0687 27.6949H36.9645L36.9706 11.053ZM46.5539 59.1972H54.6233L47.6273 33.6861C51.1582 31.4474 53.0314 27.2881 53.0314 21.3703V17.3715C53.0314 8.1751 48.5647 3.21602 40.3501 3.21602H29.3263V59.1972H36.9721V35.5257H40.503L46.5539 59.1972ZM7.63817 34.1663H10.5895C14.6265 34.1663 16.2825 36.405 16.2825 41.3641V44.482C16.2825 49.201 14.6265 51.3633 10.9503 51.3633H7.63817V34.1663ZM7.63817 11.053H10.3754C13.6906 11.053 15.2029 13.1327 15.2029 17.6911V19.5261C15.2029 24.2451 13.6906 26.3247 10.016 26.3247H7.63817V11.053ZM0 3.21602V59.1972H11.2409C19.454 59.1972 23.9222 54.2396 23.9222 45.0417V43.1226C23.9222 35.7658 21.9053 31.6065 17.1496 30.007V29.8541C21.1835 28.3341 22.8411 24.6549 22.8411 18.4174V17.3776C22.8411 8.18122 18.59 3.22214 10.6644 3.22214L0 3.21602ZM171.74 5.90123C172.365 5.90085 172.971 5.6838 173.454 5.28706C173.937 4.89031 174.267 4.33842 174.389 3.72536C174.511 3.11231 174.416 2.47603 174.121 1.92489C173.827 1.37374 173.35 0.941832 172.772 0.70272C172.195 0.463608 171.553 0.432085 170.954 0.613518C170.356 0.794951 169.84 1.17812 169.492 1.69776C169.145 2.2174 168.989 2.84137 169.05 3.46339C169.111 4.08541 169.386 4.66701 169.827 5.10913C170.078 5.36078 170.376 5.56032 170.705 5.69627C171.033 5.83221 171.385 5.90187 171.74 5.90123Z" fill="white"/>
<path d="M161.516 53.0578H154.673V59.2173H161.516V53.0578Z" fill="#D90D0D"/>
</svg>
